<?xml version="1.0" standalone="no"?>
<!DOCTYPE svg PUBLIC "-//W3C//DTD SVG 1.1//EN" "http://www.w3.org/Graphics/SVG/1.1/DTD/svg11.dtd">
<svg width="100%" height="100%" viewBox="0 0 696 152" version="1.1" xmlns="http://www.w3.org/2000/svg" xmlns:xlink="http://www.w3.org/1999/xlink" xml:space="preserve" style="fill-rule:evenodd;clip-rule:evenodd;stroke-linejoin:round;stroke-miterlimit:1.41421;">
    <g id="Layer1" transform="matrix(0.421885,0,0,0.421885,204.211,-45.7621)">
        <path d="M413.521,117.833L477.225,118.777L363.256,237.354C363.256,237.354 420.996,236.291 420.996,237.354C420.996,238.417 286.771,349.45 286.771,349.45L328.641,349.45L151.395,465.725L227.158,378.566L190.664,378.566L301.314,275.092L262.974,275.092L413.521,117.833Z" style="fill:rgb(39,47,50);fill-opacity:0.054902;"/>
    </g>
    <g transform="matrix(0.983576,0,0,1.00957,-70.0676,-33.9676)">
        <g transform="matrix(0.965746,0,0,0.965746,14.5425,-1.98729)">
            <path d="M138.677,79.809L138.677,125.665L133.237,125.665L133.237,91.969C133.237,91.521 133.253,91.041 133.285,90.529C133.317,90.017 133.355,89.494 133.397,88.961L117.653,117.633C117.163,118.593 116.416,119.073 115.413,119.073L114.517,119.073C113.515,119.073 112.768,118.593 112.277,117.633L96.213,88.833C96.341,89.964 96.405,91.009 96.405,91.969L96.405,125.665L90.965,125.665L90.965,79.809L95.541,79.809C96.096,79.809 96.523,79.862 96.821,79.969C97.12,80.076 97.408,80.374 97.685,80.865L113.525,109.089C113.781,109.601 114.032,110.134 114.277,110.689C114.523,111.244 114.752,111.809 114.965,112.385C115.179,111.809 115.403,111.238 115.637,110.673C115.872,110.108 116.128,109.569 116.405,109.057L131.957,80.865C132.213,80.374 132.496,80.076 132.805,79.969C133.115,79.862 133.547,79.809 134.101,79.809L138.677,79.809Z" style="fill:rgb(39,47,50);fill-rule:nonzero;"/>
        </g>
        <g transform="matrix(0.965746,0,0,0.965746,14.5425,-1.98729)">
            <path d="M174.741,108.641L167.541,89.985C167.328,89.43 167.104,88.785 166.869,88.049C166.635,87.313 166.411,86.529 166.197,85.697C165.749,87.425 165.291,88.865 164.821,90.017L157.621,108.641L174.741,108.641ZM187.669,125.665L182.869,125.665C182.315,125.665 181.867,125.526 181.525,125.249C181.184,124.972 180.928,124.62 180.757,124.193L176.469,113.121L155.893,113.121L151.605,124.193C151.477,124.577 151.232,124.918 150.869,125.217C150.507,125.516 150.059,125.665 149.525,125.665L144.725,125.665L163.061,79.809L169.333,79.809L187.669,125.665Z" style="fill:rgb(39,47,50);fill-rule:nonzero;"/>
        </g>
        <g transform="matrix(0.965746,0,0,0.965746,14.5425,-1.98729)">
            <path d="M220.213,85.025L205.365,85.025L205.365,125.665L199.189,125.665L199.189,85.025L184.309,85.025L184.309,79.809L220.213,79.809L220.213,85.025Z" style="fill:rgb(39,47,50);fill-rule:nonzero;"/>
        </g>
        <g transform="matrix(0.965746,0,0,0.965746,14.5425,-1.98729)">
            <path d="M258.005,85.025L243.157,85.025L243.157,125.665L236.981,125.665L236.981,85.025L222.101,85.025L222.101,79.809L258.005,79.809L258.005,85.025Z" style="fill:rgb(39,47,50);fill-rule:nonzero;"/>
        </g>
        <g transform="matrix(0.965746,0,0,0.965746,14.5425,-1.98729)">
            <path d="M301.941,79.809L301.941,125.665L295.733,125.665L295.733,104.801L270.997,104.801L270.997,125.665L264.789,125.665L264.789,79.809L270.997,79.809L270.997,100.257L295.733,100.257L295.733,79.809L301.941,79.809Z" style="fill:rgb(39,47,50);fill-rule:nonzero;"/>
        </g>
        <g transform="matrix(0.965746,0,0,0.965746,14.5425,-1.98729)">
            <path d="M341.941,120.609L341.909,125.665L313.653,125.665L313.653,79.809L341.909,79.809L341.909,84.865L319.861,84.865L319.861,100.097L337.717,100.097L337.717,104.961L319.861,104.961L319.861,120.609L341.941,120.609Z" style="fill:rgb(39,47,50);fill-rule:nonzero;"/>
        </g>
        <g transform="matrix(0.965746,0,0,0.965746,14.5425,-1.98729)">
            <path d="M410.037,79.809L395.733,125.665L390.165,125.665L378.549,90.689C378.443,90.348 378.341,89.985 378.245,89.601C378.149,89.217 378.048,88.812 377.941,88.385C377.835,88.812 377.728,89.217 377.621,89.601C377.515,89.985 377.408,90.348 377.301,90.689L365.621,125.665L360.053,125.665L345.749,79.809L350.901,79.809C351.456,79.809 351.92,79.948 352.293,80.225C352.667,80.502 352.907,80.854 353.013,81.281L362.485,113.153C362.635,113.729 362.779,114.348 362.917,115.009C363.056,115.67 363.189,116.374 363.317,117.121C363.467,116.374 363.621,115.665 363.781,114.993C363.941,114.321 364.117,113.708 364.309,113.153L375.093,81.281C375.221,80.918 375.472,80.582 375.845,80.273C376.219,79.964 376.672,79.809 377.205,79.809L378.997,79.809C379.552,79.809 380,79.948 380.341,80.225C380.683,80.502 380.939,80.854 381.109,81.281L391.861,113.153C392.053,113.708 392.229,114.305 392.389,114.945C392.549,115.585 392.704,116.257 392.853,116.961C392.96,116.257 393.077,115.585 393.205,114.945C393.333,114.305 393.472,113.708 393.621,113.153L403.125,81.281C403.232,80.897 403.472,80.556 403.845,80.257C404.219,79.958 404.672,79.809 405.205,79.809L410.037,79.809Z" style="fill:rgb(39,47,50);fill-rule:nonzero;"/>
        </g>
        <g transform="matrix(0.965746,0,0,0.965746,14.5425,-1.98729)">
            <path d="M474.773,102.753C474.773,106.188 474.229,109.34 473.141,112.209C472.053,115.078 470.517,117.548 468.533,119.617C466.549,121.686 464.165,123.292 461.381,124.433C458.597,125.574 455.52,126.145 452.149,126.145C448.779,126.145 445.707,125.574 442.933,124.433C440.16,123.292 437.781,121.686 435.797,119.617C433.813,117.548 432.277,115.078 431.189,112.209C430.101,109.34 429.557,106.188 429.557,102.753C429.557,99.318 430.101,96.166 431.189,93.297C432.277,90.428 433.813,87.953 435.797,85.873C437.781,83.793 440.16,82.177 442.933,81.025C445.707,79.873 448.779,79.297 452.149,79.297C455.52,79.297 458.597,79.873 461.381,81.025C464.165,82.177 466.549,83.793 468.533,85.873C470.517,87.953 472.053,90.428 473.141,93.297C474.229,96.166 474.773,99.318 474.773,102.753ZM468.405,102.753C468.405,99.937 468.021,97.409 467.253,95.169C466.485,92.929 465.397,91.036 463.989,89.489C462.581,87.942 460.875,86.753 458.869,85.921C456.864,85.089 454.624,84.673 452.149,84.673C449.696,84.673 447.467,85.089 445.461,85.921C443.456,86.753 441.744,87.942 440.325,89.489C438.907,91.036 437.813,92.929 437.045,95.169C436.277,97.409 435.893,99.937 435.893,102.753C435.893,105.569 436.277,108.092 437.045,110.321C437.813,112.55 438.907,114.438 440.325,115.985C441.744,117.532 443.456,118.716 445.461,119.537C447.467,120.358 449.696,120.769 452.149,120.769C454.624,120.769 456.864,120.358 458.869,119.537C460.875,118.716 462.581,117.532 463.989,115.985C465.397,114.438 466.485,112.55 467.253,110.321C468.021,108.092 468.405,105.569 468.405,102.753Z" style="fill:rgb(39,47,50);fill-rule:nonzero;"/>
        </g>
        <g transform="matrix(0.965746,0,0,0.965746,14.5425,-1.98729)">
            <path d="M496.341,102.017C498.133,102.017 499.717,101.798 501.093,101.361C502.469,100.924 503.621,100.305 504.549,99.505C505.477,98.705 506.176,97.75 506.645,96.641C507.115,95.532 507.349,94.305 507.349,92.961C507.349,90.23 506.453,88.172 504.661,86.785C502.869,85.398 500.181,84.705 496.597,84.705L489.813,84.705L489.813,102.017L496.341,102.017ZM517.525,125.665L512.021,125.665C510.891,125.665 510.059,125.228 509.525,124.353L497.621,107.969C497.259,107.457 496.869,107.089 496.453,106.865C496.037,106.641 495.392,106.529 494.517,106.529L489.813,106.529L489.813,125.665L483.637,125.665L483.637,79.809L496.597,79.809C499.499,79.809 502.005,80.102 504.117,80.689C506.229,81.276 507.973,82.124 509.349,83.233C510.725,84.342 511.744,85.681 512.405,87.249C513.067,88.817 513.397,90.572 513.397,92.513C513.397,94.134 513.141,95.649 512.629,97.057C512.117,98.465 511.376,99.729 510.405,100.849C509.435,101.969 508.251,102.924 506.853,103.713C505.456,104.502 503.872,105.1 502.101,105.505C502.891,105.953 503.573,106.604 504.149,107.457L517.525,125.665Z" style="fill:rgb(39,47,50);fill-rule:nonzero;"/>
        </g>
        <g transform="matrix(0.965746,0,0,0.965746,14.5425,-1.98729)">
            <path d="M548.085,108.641L540.885,89.985C540.672,89.43 540.448,88.785 540.213,88.049C539.979,87.313 539.755,86.529 539.541,85.697C539.093,87.425 538.635,88.865 538.165,90.017L530.965,108.641L548.085,108.641ZM561.013,125.665L556.213,125.665C555.659,125.665 555.211,125.526 554.869,125.249C554.528,124.972 554.272,124.62 554.101,124.193L549.813,113.121L529.237,113.121L524.949,124.193C524.821,124.577 524.576,124.918 524.213,125.217C523.851,125.516 523.403,125.665 522.869,125.665L518.069,125.665L536.405,79.809L542.677,79.809L561.013,125.665Z" style="fill:rgb(39,47,50);fill-rule:nonzero;"/>
        </g>
        <g transform="matrix(0.965746,0,0,0.965746,14.5425,-1.98729)">
            <path d="M604.213,79.809L604.213,125.665L598.005,125.665L598.005,104.801L573.269,104.801L573.269,125.665L567.061,125.665L567.061,79.809L573.269,79.809L573.269,100.257L598.005,100.257L598.005,79.809L604.213,79.809Z" style="fill:rgb(39,47,50);fill-rule:nonzero;"/>
        </g>
        <g transform="matrix(0.965746,0,0,0.965746,14.5425,-1.98729)">
            <path d="M658.293,102.753C658.293,106.188 657.749,109.34 656.661,112.209C655.573,115.078 654.037,117.548 652.053,119.617C650.069,121.686 647.685,123.292 644.901,124.433C642.117,125.574 639.04,126.145 635.669,126.145C632.299,126.145 629.227,125.574 626.453,124.433C623.68,123.292 621.301,121.686 619.317,119.617C617.333,117.548 615.797,115.078 614.709,112.209C613.621,109.34 613.077,106.188 613.077,102.753C613.077,99.318 613.621,96.166 614.709,93.297C615.797,90.428 617.333,87.953 619.317,85.873C621.301,83.793 623.68,82.177 626.453,81.025C629.227,79.873 632.299,79.297 635.669,79.297C639.04,79.297 642.117,79.873 644.901,81.025C647.685,82.177 650.069,83.793 652.053,85.873C654.037,87.953 655.573,90.428 656.661,93.297C657.749,96.166 658.293,99.318 658.293,102.753ZM651.925,102.753C651.925,99.937 651.541,97.409 650.773,95.169C650.005,92.929 648.917,91.036 647.509,89.489C646.101,87.942 644.395,86.753 642.389,85.921C640.384,85.089 638.144,84.673 635.669,84.673C633.216,84.673 630.987,85.089 628.981,85.921C626.976,86.753 625.264,87.942 623.845,89.489C622.427,91.036 621.333,92.929 620.565,95.169C619.797,97.409 619.413,99.937 619.413,102.753C619.413,105.569 619.797,108.092 620.565,110.321C621.333,112.55 622.427,114.438 623.845,115.985C625.264,117.532 626.976,118.716 628.981,119.537C630.987,120.358 633.216,120.769 635.669,120.769C638.144,120.769 640.384,120.358 642.389,119.537C644.395,118.716 646.101,117.532 647.509,115.985C648.917,114.438 650.005,112.55 650.773,110.321C651.541,108.092 651.925,105.569 651.925,102.753Z" style="fill:rgb(39,47,50);fill-rule:nonzero;"/>
        </g>
        <g transform="matrix(0.965746,0,0,0.965746,14.5425,-1.98729)">
            <path d="M709.525,102.753C709.525,106.188 708.981,109.34 707.893,112.209C706.805,115.078 705.269,117.548 703.285,119.617C701.301,121.686 698.917,123.292 696.133,124.433C693.349,125.574 690.272,126.145 686.901,126.145C683.531,126.145 680.459,125.574 677.685,124.433C674.912,123.292 672.533,121.686 670.549,119.617C668.565,117.548 667.029,115.078 665.941,112.209C664.853,109.34 664.309,106.188 664.309,102.753C664.309,99.318 664.853,96.166 665.941,93.297C667.029,90.428 668.565,87.953 670.549,85.873C672.533,83.793 674.912,82.177 677.685,81.025C680.459,79.873 683.531,79.297 686.901,79.297C690.272,79.297 693.349,79.873 696.133,81.025C698.917,82.177 701.301,83.793 703.285,85.873C705.269,87.953 706.805,90.428 707.893,93.297C708.981,96.166 709.525,99.318 709.525,102.753ZM703.157,102.753C703.157,99.937 702.773,97.409 702.005,95.169C701.237,92.929 700.149,91.036 698.741,89.489C697.333,87.942 695.627,86.753 693.621,85.921C691.616,85.089 689.376,84.673 686.901,84.673C684.448,84.673 682.219,85.089 680.213,85.921C678.208,86.753 676.496,87.942 675.077,89.489C673.659,91.036 672.565,92.929 671.797,95.169C671.029,97.409 670.645,99.937 670.645,102.753C670.645,105.569 671.029,108.092 671.797,110.321C672.565,112.55 673.659,114.438 675.077,115.985C676.496,117.532 678.208,118.716 680.213,119.537C682.219,120.358 684.448,120.769 686.901,120.769C689.376,120.769 691.616,120.358 693.621,119.537C695.627,118.716 697.333,117.532 698.741,115.985C700.149,114.438 701.237,112.55 702.005,110.321C702.773,108.092 703.157,105.569 703.157,102.753Z" style="fill:rgb(39,47,50);fill-rule:nonzero;"/>
        </g>
        <g transform="matrix(0.965746,0,0,0.965746,14.5425,-1.98729)">
            <path d="M758.133,102.753C758.133,106.188 757.589,109.313 756.501,112.129C755.413,114.945 753.877,117.356 751.893,119.361C749.909,121.366 747.525,122.918 744.741,124.017C741.957,125.116 738.88,125.665 735.509,125.665L718.389,125.665L718.389,79.809L735.509,79.809C738.88,79.809 741.957,80.358 744.741,81.457C747.525,82.556 749.909,84.113 751.893,86.129C753.877,88.145 755.413,90.561 756.501,93.377C757.589,96.193 758.133,99.318 758.133,102.753ZM751.765,102.753C751.765,99.937 751.381,97.42 750.613,95.201C749.845,92.982 748.757,91.105 747.349,89.569C745.941,88.033 744.235,86.86 742.229,86.049C740.224,85.238 737.984,84.833 735.509,84.833L724.597,84.833L724.597,120.641L735.509,120.641C737.984,120.641 740.224,120.236 742.229,119.425C744.235,118.614 745.941,117.446 747.349,115.921C748.757,114.396 749.845,112.524 750.613,110.305C751.381,108.086 751.765,105.569 751.765,102.753Z" style="fill:rgb(39,47,50);fill-rule:nonzero;"/>
        </g>
    </g>
    <g transform="matrix(0.965746,0,0,0.965746,134.767,-95.8928)">
        <path d="M211.18,191.354L214.457,201.439L225.061,201.439L216.483,207.672L219.759,217.757L211.18,211.524L202.602,217.757L205.878,207.672L197.299,201.439L207.904,201.439L211.18,191.354Z" style="fill:rgb(255,61,46);"/>
    </g>
    <g transform="matrix(0.794892,0,0,0.794892,196.924,-60.9438)">
        <path d="M211.18,191.354L214.457,201.439L225.061,201.439L216.483,207.672L219.759,217.757L211.18,211.524L202.602,217.757L205.878,207.672L197.299,201.439L207.904,201.439L211.18,191.354Z" style="fill:rgb(157,189,198);"/>
    </g>
    <g transform="matrix(0.794892,0,0,0.794892,144.773,-60.9438)">
        <path d="M211.18,191.354L214.457,201.439L225.061,201.439L216.483,207.672L219.759,217.757L211.18,211.524L202.602,217.757L205.878,207.672L197.299,201.439L207.904,201.439L211.18,191.354Z" style="fill:rgb(157,189,198);"/>
    </g>
</svg>
